HIERARCHY
ROOT Hips
{
  OFFSET 5.80788e-005 67.184 3.4734
  CHANNELS 6 Xposition Yposition Zposition Zrotation Xrotation Yrotation
  JOINT Chest
  {
    OFFSET 0 8.7983 -4.7612
    CHANNELS 3 Zrotation Xrotation Yrotation
    JOINT Chest2
    {
      OFFSET 0 8.0291 0.4195
      CHANNELS 3 Zrotation Xrotation Yrotation
      JOINT Chest3
      {
        OFFSET 0 9.9351 -2.2114
        CHANNELS 3 Zrotation Xrotation Yrotation
        JOINT Neck
        {
          OFFSET 0 22.3885 -0.4656
          CHANNELS 3 Zrotation Xrotation Yrotation
          JOINT Head
          {
            OFFSET -0.0001 12.643 3.4389
            CHANNELS 3 Zrotation Xrotation Yrotation
            End Site
            {
              OFFSET 0.0001 17.6655 0.5274
            }
          }
        }
        JOINT LeftCollar
        {
          OFFSET 2.2603 21.606 7.4023
          CHANNELS 3 Zrotation Xrotation Yrotation
          JOINT LeftShoulder
          {
            OFFSET 13.5163 -1.1332 -5.0146
            CHANNELS 3 Zrotation Xrotation Yrotation
            JOINT LeftElbow
            {
              OFFSET -0.0995 -28.05 -0.2431
              CHANNELS 3 Zrotation Xrotation Yrotation
              JOINT LeftWrist
              {
                OFFSET 0.0679 -23.3996 -0.1402
                CHANNELS 3 Zrotation Xrotation Yrotation
                JOINT LeftFinger1
                {
                  OFFSET 0.7932 -9.069 2.5189
                  CHANNELS 3 Zrotation Xrotation Yrotation
                  JOINT LeftFinger11
                  {
                    OFFSET -0.8272 -3.3923 0.5977
                    CHANNELS 3 Zrotation Xrotation Yrotation
                    JOINT LeftFinger12
                    {
                      OFFSET -0.5649 -2.3158 0.4082
                      CHANNELS 3 Zrotation Xrotation Yrotation
                      End Site
                      {
                        OFFSET -0.4919 -1.6479 0.2673
                      }
                    }
                  }
                }
                JOINT LeftFinger2
                {
                  OFFSET 0.9159 -9.2044 0.2193
                  CHANNELS 3 Zrotation Xrotation Yrotation
                  JOINT LeftFinger21
                  {
                    OFFSET 0.0117 -4.1944 -0.0248
                    CHANNELS 3 Zrotation Xrotation Yrotation
                    JOINT LeftFinger22
                    {
                      OFFSET 0.0071 -2.3249 -0.0142
                      CHANNELS 3 Zrotation Xrotation Yrotation
                      End Site
                      {
                        OFFSET -0.1475 -2.0882 0.0028
                      }
                    }
                  }
                }
                JOINT LeftFinger3
                {
                  OFFSET 0.6113 -8.7231 -2.0637
                  CHANNELS 3 Zrotation Xrotation Yrotation
                  JOINT LeftFinger31
                  {
                    OFFSET -0.1927 -3.8059 -0.2383
                    CHANNELS 3 Zrotation Xrotation Yrotation
                    JOINT LeftFinger32
                    {
                      OFFSET -0.1091 -2.1688 -0.1362
                      CHANNELS 3 Zrotation Xrotation Yrotation
                      End Site
                      {
                        OFFSET -0.2358 -1.9176 -0.0906
                      }
                    }
                  }
                }
                JOINT LeftFinger4
                {
                  OFFSET -0.6151 -8.0947 -3.5641
                  CHANNELS 3 Zrotation Xrotation Yrotation
                  JOINT LeftFinger41
                  {
                    OFFSET -0.4882 -2.341 -0.6462
                    CHANNELS 3 Zrotation Xrotation Yrotation
                    JOINT LeftFinger42
                    {
                      OFFSET -0.3575 -1.7167 -0.4742
                      CHANNELS 3 Zrotation Xrotation Yrotation
                      End Site
                      {
                        OFFSET -0.4187 -1.5237 -0.3496
                      }
                    }
                  }
                }
                JOINT LeftFinger0
                {
                  OFFSET -1.42 -1.8761 1.4223
                  CHANNELS 3 Zrotation Xrotation Yrotation
                  JOINT LeftFinger01
                  {
                    OFFSET -1.1471 -3.4929 2.6334
                    CHANNELS 3 Zrotation Xrotation Yrotation
                    JOINT LeftFinger02
                    {
                      OFFSET -0.823 -2.3 1.6571
                      CHANNELS 3 Zrotation Xrotation Yrotation
                      End Site
                      {
                        OFFSET -0.5822 -1.6914 1.1582
                      }
                    }
                  }
                }
              }
            }
          }
        }
        JOINT RightCollar
        {
          OFFSET -2.2603 21.606 7.4023
          CHANNELS 3 Zrotation Xrotation Yrotation
          JOINT RightShoulder
          {
            OFFSET -13.5187 -1.1334 -5.0155
            CHANNELS 3 Zrotation Xrotation Yrotation
            JOINT RightElbow
            {
              OFFSET 0.0994 -28.0499 -0.2431
              CHANNELS 3 Zrotation Xrotation Yrotation
              JOINT RightWrist
              {
                OFFSET -0.0679 -23.3996 -0.1402
                CHANNELS 3 Zrotation Xrotation Yrotation
                JOINT RightFinger1
                {
                  OFFSET -0.7932 -9.0691 2.5189
                  CHANNELS 3 Zrotation Xrotation Yrotation
                  JOINT RightFinger11
                  {
                    OFFSET 0.8272 -3.3923 0.5977
                    CHANNELS 3 Zrotation Xrotation Yrotation
                    JOINT RightFinger12
                    {
                      OFFSET 0.565 -2.3158 0.4082
                      CHANNELS 3 Zrotation Xrotation Yrotation
                      End Site
                      {
                        OFFSET 0.4919 -1.6479 0.2673
                      }
                    }
                  }
                }
                JOINT RightFinger2
                {
                  OFFSET -0.916 -9.2044 0.2193
                  CHANNELS 3 Zrotation Xrotation Yrotation
                  JOINT RightFinger21
                  {
                    OFFSET -0.0117 -4.1944 -0.0248
                    CHANNELS 3 Zrotation Xrotation Yrotation
                    JOINT RightFinger22
                    {
                      OFFSET -0.0071 -2.3249 -0.0142
                      CHANNELS 3 Zrotation Xrotation Yrotation
                      End Site
                      {
                        OFFSET 0.1475 -2.0882 0.0028
                      }
                    }
                  }
                }
                JOINT RightFinger3
                {
                  OFFSET -0.6113 -8.7231 -2.0637
                  CHANNELS 3 Zrotation Xrotation Yrotation
                  JOINT RightFinger31
                  {
                    OFFSET 0.1927 -3.8059 -0.2383
                    CHANNELS 3 Zrotation Xrotation Yrotation
                    JOINT RightFinger32
                    {
                      OFFSET 0.1091 -2.1688 -0.1362
                      CHANNELS 3 Zrotation Xrotation Yrotation
                      End Site
                      {
                        OFFSET 0.2358 -1.9176 -0.0906
                      }
                    }
                  }
                }
                JOINT RightFinger4
                {
                  OFFSET 0.6151 -8.0947 -3.564
                  CHANNELS 3 Zrotation Xrotation Yrotation
                  JOINT RightFinger41
                  {
                    OFFSET 0.4882 -2.341 -0.6462
                    CHANNELS 3 Zrotation Xrotation Yrotation
                    JOINT RightFinger42
                    {
                      OFFSET 0.3574 -1.7166 -0.4742
                      CHANNELS 3 Zrotation Xrotation Yrotation
                      End Site
                      {
                        OFFSET 0.4187 -1.5237 -0.3496
                      }
                    }
                  }
                }
                JOINT RightFinger0
                {
                  OFFSET 1.4199 -1.8761 1.4221
                  CHANNELS 3 Zrotation Xrotation Yrotation
                  JOINT RightFinger01
                  {
                    OFFSET 1.1472 -3.4929 2.6336
                    CHANNELS 3 Zrotation Xrotation Yrotation
                    JOINT RightFinger02
                    {
                      OFFSET 0.8229 -2.3 1.6571
                      CHANNELS 3 Zrotation Xrotation Yrotation
                      End Site
                      {
                        OFFSET 0.5822 -1.6914 1.1582
                      }
                    }
                  }
                }
              }
            }
          }
        }
      }
    }
  }
  JOINT RightHip
  {
    OFFSET -9.412 3.9771 -0.7758
    CHANNELS 3 Zrotation Xrotation Yrotation
    JOINT RightKnee
    {
      OFFSET -0.7531 -40.938 0
      CHANNELS 3 Zrotation Xrotation Yrotation
      JOINT RightAnkle
      {
        OFFSET 0 -40.1986 0
        CHANNELS 3 Zrotation Xrotation Yrotation
        JOINT RightToe
        {
          OFFSET 0 -4.4182 9.239
          CHANNELS 3 Zrotation Xrotation Yrotation
          End Site
          {
            OFFSET 0 0 6.1981
          }
        }
      }
    }
  }
  JOINT LeftHip
  {
    OFFSET 9.4119 3.9773 -0.7758
    CHANNELS 3 Zrotation Xrotation Yrotation
    JOINT LeftKnee
    {
      OFFSET 0.7532 -40.9383 0
      CHANNELS 3 Zrotation Xrotation Yrotation
      JOINT LeftAnkle
      {
        OFFSET 0 -40.1986 0
        CHANNELS 3 Zrotation Xrotation Yrotation
        JOINT LeftToe
        {
          OFFSET 0 -4.4182 9.239
          CHANNELS 3 Zrotation Xrotation Yrotation
          End Site
          {
            OFFSET 0 0 6.1981
          }
        }
      }
    }
  }
}
MOTION
Frames:	7
Frame Time:	0.0333333
39.93 18.1107 11.3376 -1.02404e-007 -64.0139 -1.11043e-007 -1.81444 -5.86048 -0.71263 -3.73187 -11.6947 -1.62539 -3.73189 -11.6948 -1.62539 -18.7861 2.83435 1.99386 -1.2967 -21.8962 0.726659 14.0034 6.52161 6.71701 98.7941 24.3814 -45.6795 0.636095 -7.50953 -41.0155 10.8709 -16.897 5.79531 1.98785e-015 0 1.59028e-015 3.77691e-015 7.95139e-016 3.18055e-015 -0 0 1.59028e-015 1.98785e-015 0 1.59028e-015 -0.0128397 0.00232789 8.56639e-005 2.5842e-015 -7.95139e-016 -1.59028e-015 1.98785e-015 0 1.59028e-015 -0.016026 0.00298998 0.000856553 -1.33223e-005 1.7717e-006 2.47274e-007 1.98785e-015 0 1.59028e-015 -0.0125776 0.00311939 0.00282609 4.13713e-006 -3.91317e-007 -2.7617e-007 1.98785e-015 0 1.59028e-015 3.77691e-015 7.95139e-016 3.18055e-015 -0 0 1.59028e-015 -12.322 5.42851 -9.07102 -94.0871 14.0596 43.6889 -2.30584 -0.833317 40.8768 -3.88818 -21.2784 0.373877 2.78299e-015 -4.77083e-015 4.77083e-015 5.36719e-015 -2.38542e-015 4.77083e-015 -1.39149e-015 -7.95139e-016 6.36111e-015 2.78299e-015 -4.77083e-015 4.77083e-015 0.0129464 0.00231635 -8.7061e-005 -1.98785e-016 3.97569e-015 -3.18055e-015 2.78299e-015 -4.77083e-015 4.77083e-015 0.0163017 0.00302995 -0.000875503 5.56597e-015 -7.95139e-016 3.18055e-015 2.78299e-015 -4.77083e-015 4.77083e-015 0.014587 0.00367704 -0.0032638 -3.18055e-015 -1.59028e-015 3.18055e-015 2.78299e-015 -4.77083e-015 4.77083e-015 5.36719e-015 -2.38542e-015 4.77083e-015 -1.39149e-015 -7.95139e-016 6.36111e-015 -42.7448 17.5657 -41.1594 -144.177 23.1484 177.202 24.8537 29.3466 -58.3537 7.00798e-007 -5.01083e-006 2.23163e-006 48.5205 16.999 31.9729 135.335 26.7892 -175.262 -28.2972 37.5001 27.0191 1.80499e-007 8.58238e-006 -3.34268e-006 
39.93 18.1571 11.3376 -9.97651e-008 -64.0139 -4.25137e-007 -1.81377 -5.95302 -0.721447 -3.73361 -11.8795 -1.64656 -3.73363 -11.8795 -1.64657 -18.7895 3.0238 2.05837 -1.29402 -21.6033 0.733772 14.1326 6.56504 6.59875 98.794 24.3813 -45.6795 0.636075 -7.50943 -41.0155 10.7489 -16.9902 5.41966 9.93923e-016 7.95139e-016 -1.59028e-015 1.19271e-015 2.38542e-015 -0 2.18663e-015 2.38542e-015 -0 9.93923e-016 7.95139e-016 -1.59028e-015 -0.0127937 0.00232252 8.29998e-005 1.98785e-016 -7.95139e-016 -1.59028e-015 9.93923e-016 7.95139e-016 -1.59028e-015 -0.0160743 0.00300241 0.000857302 1.04462e-007 -4.00568e-008 8.35325e-007 9.93923e-016 7.95139e-016 -1.59028e-015 -0.0125934 0.00312399 0.00282553 1.04451e-007 4.31611e-007 8.35321e-007 9.93923e-016 7.95139e-016 -1.59028e-015 1.19271e-015 2.38542e-015 -0 2.18663e-015 2.38542e-015 -0 -12.4684 5.46054 -8.87388 -94.0871 14.0596 43.6889 -2.30583 -0.833321 40.8768 -3.7533 -21.3156 0.746843 4.37326e-015 -4.26948e-007 3.18055e-015 4.77083e-015 4.26948e-007 -4.77083e-015 1.07344e-014 -4.26948e-007 3.18055e-015 4.37326e-015 -4.26948e-007 3.18055e-015 0.0129672 0.00231964 -8.6736e-005 -2.38542e-015 2.38542e-015 -1.59028e-015 4.37326e-015 -4.26948e-007 3.18055e-015 0.0163321 0.0030338 -0.000872935 1.49089e-014 -4.2695e-007 -1.59028e-015 4.37326e-015 -4.26948e-007 3.18055e-015 0.0145863 0.00367904 -0.0032647 5.75727e-006 8.94967e-007 -1.10127e-006 4.37326e-015 -4.26948e-007 3.18055e-015 4.77083e-015 4.26948e-007 -4.77083e-015 1.07344e-014 -4.26948e-007 3.18055e-015 -42.7381 17.5609 -41.174 -144.183 23.1451 177.202 24.984 29.2655 -58.4186 2.2571e-006 -2.96144e-006 2.26799e-006 48.5143 16.9966 31.9839 135.342 26.7865 -175.265 -28.4256 37.4171 27.0923 -4.16318e-006 8.65825e-006 -9.0829e-006 
39.93 18.2035 11.3376 -1.38092e-008 -64.0139 -3.86697e-007 -1.8131 -6.04558 -0.730262 -3.7354 -12.0643 -1.66775 -3.73541 -12.0643 -1.66776 -18.793 3.2133 2.12293 -1.29139 -21.3104 0.740842 14.262 6.60825 6.48039 98.7941 24.3814 -45.6795 0.636064 -7.50953 -41.0155 10.6261 -17.0827 5.04364 1.05532e-007 4.32256e-009 8.34994e-007 -4.15277e-006 3.04775e-006 2.58321e-007 -5.96354e-016 -3.18055e-015 1.59028e-015 1.05532e-007 4.32256e-009 8.34994e-007 -0.0128316 0.00232991 8.40707e-005 5.96354e-016 3.18055e-015 -0 1.05532e-007 4.32256e-009 8.34994e-007 -0.0160103 0.00299033 0.000854061 -5.75457e-006 1.63275e-006 7.34703e-007 1.05532e-007 4.32256e-009 8.34994e-007 -0.0126371 0.00313514 0.00283674 3.37934e-015 2.38542e-015 3.18055e-015 1.05532e-007 4.32256e-009 8.34994e-007 -4.15277e-006 3.04775e-006 2.58321e-007 -5.96354e-016 -3.18055e-015 1.59028e-015 -12.6149 5.49216 -8.67662 -94.0871 14.0596 43.689 -2.30584 -0.833326 40.8768 -3.61811 -21.3519 1.11999 -8.15017e-015 -1.59028e-015 -0 -7.7526e-015 -7.95139e-016 -1.59028e-015 -7.55382e-015 -1.59028e-015 -1.59028e-015 -8.15017e-015 -1.59028e-015 -0 0.0129429 0.00231518 -8.65084e-005 1.39149e-015 7.95139e-016 4.77083e-015 -8.15017e-015 -1.59028e-015 -0 0.0163317 0.00303335 -0.000873179 8.17509e-008 4.49779e-007 -8.37521e-007 -8.15017e-015 -1.59028e-015 -0 0.0146002 0.00368397 -0.0032623 -2.5842e-015 7.95139e-016 -1.59028e-015 -8.15017e-015 -1.59028e-015 -0 -7.7526e-015 -7.95139e-016 -1.59028e-015 -7.55382e-015 -1.59028e-015 -1.59028e-015 -42.7313 17.5559 -41.1885 -144.19 23.1418 177.203 25.1142 29.1841 -58.4831 -9.01426e-007 -1.53939e-006 3.68624e-006 48.5081 16.9942 31.995 135.349 26.7837 -175.268 -28.5538 37.334 27.1653 8.21021e-007 6.06838e-006 3.13651e-007 
39.93 18.25 11.3376 3.95352e-007 -64.0139 4.36192e-007 -1.81242 -6.13809 -0.739069 -3.73721 -12.2489 -1.68895 -3.73722 -12.249 -1.68895 -18.7968 3.40268 2.18747 -1.2888 -21.0175 0.747895 14.3914 6.65112 6.36192 98.794 24.3813 -45.6795 0.636082 -7.50943 -41.0155 10.5027 -17.1744 4.66726 -1.78906e-015 -1.59028e-015 3.18055e-015 9.93923e-016 -7.95139e-016 -0 3.37934e-015 0 -1.59028e-015 -1.78906e-015 -1.59028e-015 3.18055e-015 -0.0127909 0.00231848 8.58858e-005 -3.97569e-016 0 1.59028e-015 -1.78906e-015 -1.59028e-015 3.18055e-015 -0.0160375 0.00299293 0.000856063 3.97569e-016 -1.59028e-015 -0 -1.78906e-015 -1.59028e-015 3.18055e-015 -0.0125141 0.00310572 0.00281207 1.98785e-015 0 -6.36111e-015 -1.78906e-015 -1.59028e-015 3.18055e-015 9.93923e-016 -7.95139e-016 -0 3.37934e-015 0 -1.59028e-015 -12.7616 5.52319 -8.4793 -94.0871 14.0596 43.689 -2.30585 -0.833307 40.8768 -3.48267 -21.3874 1.49328 1.11899e-005 1.72629e-006 1.16219e-006 3.37934e-015 -4.27269e-007 -0 1.39149e-015 -1.59028e-015 -1.59028e-015 1.11899e-005 1.72629e-006 1.16219e-006 0.0129479 0.00231605 -8.69262e-005 -7.95139e-016 -2.38542e-015 -0 1.11899e-005 1.72629e-006 1.16219e-006 0.0163452 0.00303632 -0.000872972 4.37326e-015 -1.59028e-015 -0 1.11899e-005 1.72629e-006 1.16219e-006 0.0145895 0.00367764 -0.00325845 -2.42758e-005 -3.63295e-006 -2.23378e-006 1.11899e-005 1.72629e-006 1.16219e-006 3.37934e-015 -4.27269e-007 -0 1.39149e-015 -1.59028e-015 -1.59028e-015 -42.7246 17.551 -41.203 -144.196 23.1385 177.203 25.2442 29.1028 -58.5475 4.28561e-006 -8.47301e-006 1.2167e-006 48.5018 16.9917 32.0061 135.356 26.7809 -175.27 -28.6817 37.2507 27.2379 -1.06464e-006 -5.30342e-007 1.33168e-006 
39.93 18.2964 11.3376 -1.74923e-006 -64.0139 -2.304e-006 -1.81174 -6.23061 -0.747878 -3.73905 -12.4336 -1.71016 -3.73906 -12.4337 -1.71016 -18.8008 3.59211 2.25205 -1.28627 -20.7247 0.754916 14.5209 6.69375 6.24334 98.7941 24.3814 -45.6795 0.636084 -7.50948 -41.0155 10.3786 -17.2654 4.29051 -2.18663e-015 -2.38542e-015 1.59028e-015 -1.98785e-016 -1.59028e-015 1.59028e-015 -1.76556e-031 -3.18055e-015 -3.18055e-015 -2.18663e-015 -2.38542e-015 1.59028e-015 -0.0128282 0.0023281 8.48331e-005 -1.59028e-015 0 -4.77083e-015 -2.18663e-015 -2.38542e-015 1.59028e-015 -0.016025 0.00299171 0.000855771 1.39149e-015 1.59028e-015 -1.59028e-015 -2.18663e-015 -2.38542e-015 1.59028e-015 -0.0125523 0.00311276 0.00282068 3.97569e-016 2.38542e-015 -3.18055e-015 -2.18663e-015 -2.38542e-015 1.59028e-015 -1.98785e-016 -1.59028e-015 1.59028e-015 -1.76556e-031 -3.18055e-015 -3.18055e-015 -12.9083 5.5537 -8.2819 -94.0871 14.0596 43.689 -2.30584 -0.833289 40.8768 -3.34691 -21.422 1.86674 -7.57579e-006 -1.01384e-006 3.54725e-007 -5.36719e-015 1.59028e-015 -0 -2.5842e-015 -4.27427e-007 -0 -7.57579e-006 -1.01384e-006 3.54725e-007 0.0129381 0.00231523 -8.75287e-005 -1.39149e-015 -4.27428e-007 -1.59028e-015 -7.57579e-006 -1.01384e-006 3.54725e-007 0.0163217 0.00303185 -0.000874676 2.5842e-015 0 -1.59028e-015 -7.57579e-006 -1.01384e-006 3.54725e-007 0.014555 0.00367418 -0.00325683 6.62086e-032 7.95139e-016 -4.77083e-015 -7.57579e-006 -1.01384e-006 3.54725e-007 -5.36719e-015 1.59028e-015 -0 -2.5842e-015 -4.27427e-007 -0 -42.7178 17.5461 -41.2175 -144.203 23.1353 177.204 25.3739 29.0212 -58.6116 1.5875e-006 4.77194e-006 4.24119e-008 48.4956 16.9893 32.0171 135.362 26.7782 -175.273 -28.8094 37.1673 27.3102 1.18159e-006 7.276e-007 2.99008e-006 
39.93 18.3428 11.3376 -1.8007e-006 -64.0139 -1.84716e-006 -1.81105 -6.32314 -0.75668 -3.74093 -12.6182 -1.73137 -3.74094 -12.6183 -1.73138 -18.8049 3.78152 2.31665 -1.28376 -20.4318 0.7619 14.6506 6.73611 6.12467 98.7941 24.3814 -45.6795 0.636061 -7.50949 -41.0155 10.2539 -17.3555 3.91342 -1.73938e-005 4.10906e-006 1.38234e-006 -4.69356e-023 -1.69103e-006 -1.59028e-015 1.75024e-005 -2.4088e-006 -5.48335e-007 -1.73938e-005 4.10906e-006 1.38234e-006 -0.012821 0.00232518 8.54107e-005 7.17675e-007 1.6124e-006 -9.06006e-007 -1.73938e-005 4.10906e-006 1.38234e-006 -0.0160315 0.00298899 0.00085716 1.22621e-005 -4.50981e-007 -2.14832e-006 -1.73938e-005 4.10906e-006 1.38234e-006 -0.0125158 0.00310593 0.00281298 -1.6997e-006 2.8949e-007 -3.2476e-007 -1.73938e-005 4.10906e-006 1.38234e-006 -4.69356e-023 -1.69103e-006 -1.59028e-015 1.75024e-005 -2.4088e-006 -5.48335e-007 -13.0552 5.58373 -8.08442 -94.0871 14.0596 43.689 -2.30585 -0.833342 40.8768 -3.2109 -21.4558 2.24033 -4.37326e-015 2.38542e-015 -0 -7.95139e-016 0 -1.59028e-015 -3.77691e-015 -1.59028e-015 -1.59028e-015 -4.37326e-015 2.38542e-015 -0 0.0129601 0.00231938 -8.82002e-005 -8.34896e-015 0 -3.18055e-015 -4.37326e-015 2.38542e-015 -0 0.0163336 0.0030349 -0.000873157 2.5842e-015 -4.77083e-015 -3.18055e-015 -4.37326e-015 2.38542e-015 -0 0.0145821 0.00368008 -0.00326782 8.04889e-008 8.53299e-007 -8.37061e-007 -4.37326e-015 2.38542e-015 -0 -7.95139e-016 0 -1.59028e-015 -3.77691e-015 -1.59028e-015 -1.59028e-015 -42.711 17.5411 -41.2321 -144.21 23.132 177.205 25.5036 28.9395 -58.6754 -4.77083e-015 0 -4.77083e-015 48.4894 16.9868 32.0282 135.369 26.7754 -175.275 -28.9367 37.0837 27.3822 5.31897e-007 2.5592e-007 -6.66318e-007 
39.93 18.3892 11.3376 -8.39183e-007 -64.0139 -7.37423e-007 -1.81035 -6.4156 -0.765477 -3.74285 -12.8029 -1.75261 -3.74286 -12.8029 -1.75262 -18.8093 3.97093 2.38129 -1.28131 -20.139 0.768873 14.7803 6.77823 6.00588 98.7941 24.3814 -45.6795 0.636069 -7.50951 -41.0155 10.1284 -17.4449 3.53599 -2.5842e-015 0 -1.59028e-015 -9.93923e-016 0 -1.59028e-015 -1.59028e-015 0 -1.59028e-015 -2.5842e-015 0 -1.59028e-015 -0.0128232 0.00232696 8.49763e-005 -1.78906e-015 0 -1.59028e-015 -2.5842e-015 0 -1.59028e-015 -0.0160531 0.00299354 0.000857895 -2.38542e-015 1.59028e-015 -0 -2.5842e-015 0 -1.59028e-015 -0.0125656 0.00311731 0.00282332 3.37934e-015 -1.59028e-015 3.18055e-015 -2.5842e-015 0 -1.59028e-015 -9.93923e-016 0 -1.59028e-015 -1.59028e-015 0 -1.59028e-015 -13.2021 5.61328 -7.88686 -94.0871 14.0596 43.689 -2.30585 -0.833308 40.8768 -3.0747 -21.4889 2.61403 1.78906e-015 1.59028e-015 3.18055e-015 4.17448e-015 7.95139e-016 -0 1.59028e-015 -7.95139e-016 1.59028e-015 1.78906e-015 1.59028e-015 3.18055e-015 0.0129526 0.00231669 -8.49987e-005 5.96354e-015 0 -3.18055e-015 1.78906e-015 1.59028e-015 3.18055e-015 0.0163334 0.00303421 -0.000872819 7.35503e-015 2.38542e-015 3.18055e-015 1.78906e-015 1.59028e-015 3.18055e-015 0.0145895 0.00368136 -0.00326252 -1.19271e-015 -7.95139e-016 -0 1.78906e-015 1.59028e-015 3.18055e-015 4.17448e-015 7.95139e-016 -0 1.59028e-015 -7.95139e-016 1.59028e-015 -42.7042 17.5361 -41.2466 -144.216 23.1288 177.205 25.633 28.8577 -58.739 -4.27209e-006 1.46978e-006 -3.19297e-007 48.4831 16.9843 32.0393 135.376 26.7727 -175.278 -29.0639 37.0001 27.4539 3.18055e-015 3.18055e-015 -3.18055e-015 
